{"title":"Bun B ft Drake - Put It Down [KingPinVideos]","uid":5957430,"size":102446597,"categoryP":"video","categoryS":"music_videos","magnet":"?xt=urn:btih:09589ee66329137d9263b7659a208e1755ff14b3&amp;dn=Bun+B+ft+Drake+-+Put+It+Down+%5BKingPinVideos%5D&amp;tr=udp%3A%2F%2Ftracker.openbittorrent.com%3A80&amp;tr=udp%3A%2F%2Fopen.demonii.com%3A1337&amp;tr=udp%3A%2F%2Ftracker.coppersurfer.tk%3A6969&amp;tr=udp%3A%2F%2Fexodus.desync.com%3A6969","seeders":3,"leechers":0,"uploader":"KingPinMan","files":5,"time":1289784562,"description":"[img]http://img241.imageshack.us/img241/5809/bunbputitdown.png[/img]\n\n[img]http://img152.imageshack.us/img152/4830/bunbputitdown2.png[/img]\n\n[code]General\nComplete name                    : Bun B ft Drake - Put It Down [KingPinVideos].mpg\nFormat                           : MPEG-PS\nFile size                        : 97.7 MiB\nDuration                         : 4mn 46s\nOverall bit rate                 : 2 856 Kbps\nWriting library                  : encoded by TMPGEnc 4.0 XPress Version. 4.7.4.299\n\nVideo\nID                               : 224 (0xE0)\nFormat                           : MPEG Video\nFormat version                   : Version 1\nFormat settings, BVOP            : Yes\nFormat settings, Matrix          : Default\nDuration                         : 4mn 46s\nBit rate mode                    : Constant\nBit rate                         : 2 615 Kbps\nNominal bit rate                 : 2 700 Kbps\nWidth                            : 384 pixels\nHeight                           : 208 pixels\nDisplay aspect ratio             : 16:9\nFrame rate                       : 29.970 fps\nResolution                       : 8 bits\nScan type                        : Progressive\nBits/(Pixel*Frame)               : 1.092\nStream size                      : 89.4 MiB (92%)\nWriting library                  : TMPGEnc XPress 4.7.4.299\n\nAudio\nID                               : 192 (0xC0)\nFormat                           : MPEG Audio\nFormat version                   : Version 1\nFormat profile                   : Layer 2\nDuration                         : 4mn 46s\nBit rate mode                    : Constant\nBit rate                         : 128 Kbps\nChannel(s)                       : 2 channels\nSampling rate                    : 48.0 KHz\nStream size                      : 4.38 MiB (4%)[/code]","torrent":{"xt":"urn:btih:09589ee66329137d9263b7659a208e1755ff14b3","amp;dn":"Bun+B+ft+Drake+-+Put+It+Down+%5BKingPinVideos%5D","amp;tr":["udp%3A%2F%2Ftracker.openbittorrent.com%3A80","udp%3A%2F%2Fopen.demonii.com%3A1337","udp%3A%2F%2Ftracker.coppersurfer.tk%3A6969","udp%3A%2F%2Fexodus.desync.com%3A6969"],"infoHash":"09589ee66329137d9263b7659a208e1755ff14b3","infoHashBuffer":{"type":"Buffer","data":[9,88,158,230,99,41,19,125,146,99,183,101,154,32,142,23,85,255,20,179]},"announce":[],"urlList":[]}}